<?xml version="1.0" standalone="no"?><!DOCTYPE svg PUBLIC "-//W3C//DTD SVG 1.1//EN" "http://www.w3.org/Graphics/SVG/1.1/DTD/svg11.dtd"><svg class="icon" width="200px" height="200.00px" viewBox="0 0 1024 1024" version="1.1" xmlns="http://www.w3.org/2000/svg"><path d="M832.2 127.9v766H192.7v-766h639.5m0-64H192.7c-35.3 0-64 28.7-64 64v766c0 35.3 28.7 64 64 64h639.5c35.3 0 64-28.7 64-64v-766c0-35.4-28.7-64-64-64z" fill="#D6A3B6" /><path d="M261.397 416.166v-223.3h223.3v223.3zM574.969 224.037v-32h190.3v32zM574.984 318.822v-32h190.3v32zM574.988 416.018v-32h190.3v32zM261.437 510.503v-32h503.9v32zM261.44 605.397v-32h503.9v32z" fill="#D6A3B6" /><path d="M733.039 824.168v-32h97.9v32z" fill="#8C98A6" /><path d="M896.2 958.3h-769c-35.3 0-64-28.7-64-64v-112c0-35.3 28.7-64 64-64h769c35.3 0 64 28.7 64 64v112c0 35.4-28.7 64-64 64z" fill="#C18BA1" /><path d="M190.9 771l54.6 142.8h-25l-13-35.8h-59.8l-13 35.8h-25L164.3 771h26.6z m9.6 87.8l-22.4-62.6h-0.8l-22.6 62.6h45.8zM355.1 781.4c10.4 8.4 16.6 20 18.8 34.4h-22.8c-2.4-9.4-6.8-16.2-13.4-20.6-6.4-4.4-14.6-6.4-24.6-6.4-15 0-26.2 5-33.8 15.4-7 9.2-10.4 22-10.4 38.4 0 16.8 3.4 29.8 10.2 38.8 7.4 9.6 19 14.6 34.6 14.6 10.2 0 18.6-2.6 25-7.4 6.8-5.4 11.6-13.6 14.4-24.4h22.8c-3.2 16.8-10.6 29.8-22.4 39.2-11 8.8-24.2 13.2-39.6 13.2-23.8 0-41.6-7.6-53.2-22.4-10.2-12.8-15.2-30-15.2-51.6 0-21.2 5.2-38.6 15.8-51.8 12-15.2 29.4-22.6 52.2-22.6 16.8 0 30.8 4.4 41.6 13.2zM501.5 781.4c10.4 8.4 16.6 20 18.8 34.4h-22.8c-2.4-9.4-6.8-16.2-13.4-20.6-6.4-4.4-14.6-6.4-24.6-6.4-15 0-26.2 5-33.8 15.4-7 9.2-10.4 22-10.4 38.4 0 16.8 3.4 29.8 10.2 38.8 7.4 9.6 19 14.6 34.6 14.6 10.2 0 18.6-2.6 25-7.4 6.8-5.4 11.6-13.6 14.4-24.4h22.8c-3.2 16.8-10.6 29.8-22.4 39.2-11 8.8-24.2 13.2-39.6 13.2-23.8 0-41.6-7.6-53.2-22.4-10.2-12.8-15.2-30-15.2-51.6 0-21.2 5.2-38.6 15.8-51.8 12-15.2 29.4-22.6 52.2-22.6 16.8 0 30.8 4.4 41.6 13.2zM647.3 771v20h-79.6v39.6h74.8v20h-74.8v43.2h83v20H544.3V771h103zM762.5 778.6c10 7.4 15.8 19 17.2 34.6h-23.2c-2-8.8-5.8-15.2-11-19-5.2-4-13.2-5.8-23.6-5.8-9 0-15.8 1.2-20.6 3.8-6 3-8.8 8-8.8 14.8 0 6 3.2 11 10 14.6 3 1.6 11.2 4.6 24.4 8.8 19.4 6 31.8 10.8 37.4 14 12.4 7.4 18.6 17.6 18.6 30.8 0 12.8-5 23-15 30.4-10 7.2-24.2 11-42.4 11-17.6 0-31.4-3.4-41.2-10.2-12-8.4-18.6-21.6-19.6-39.8h23.2c1.6 10.8 5.4 18.6 11.6 23.2 5.6 4 14.2 6.2 26 6.2 10.4 0 18.8-1.8 24.8-5.2 6-3.6 9.2-8.2 9.2-14.2 0-7.6-4.6-13.6-13.4-18-2.8-1.4-12-4.6-27.8-9.4-17.6-5.6-28.6-9.6-32.8-12-11-6.6-16.4-16.2-16.4-28.8s5.2-22.6 16-29.8c10-7 22.6-10.4 38-10.4 16.8 0 30 3.4 39.4 10.4zM892.7 778.6c10 7.4 15.8 19 17.2 34.6h-23.2c-2-8.8-5.8-15.2-11-19-5.2-4-13.2-5.8-23.6-5.8-9 0-15.8 1.2-20.6 3.8-6 3-8.8 8-8.8 14.8 0 6 3.2 11 10 14.6 3 1.6 11.2 4.6 24.4 8.8 19.4 6 31.8 10.8 37.4 14 12.4 7.4 18.6 17.6 18.6 30.8 0 12.8-5 23-15 30.4-10 7.2-24.2 11-42.4 11-17.6 0-31.4-3.4-41.2-10.2-12-8.4-18.6-21.6-19.6-39.8h23.2c1.6 10.8 5.4 18.6 11.6 23.2 5.6 4 14.2 6.2 26 6.2 10.4 0 18.8-1.8 24.8-5.2 6-3.6 9.2-8.2 9.2-14.2 0-7.6-4.6-13.6-13.4-18-2.8-1.4-12-4.6-27.8-9.4-17.6-5.6-28.6-9.6-32.8-12-11-6.6-16.4-16.2-16.4-28.8s5.2-22.6 16-29.8c10-7 22.6-10.4 38-10.4 16.8 0 30 3.4 39.4 10.4z" fill="#FFFFFF" /><path d="M388.6 219.8L452 385.6h-29L407.9 344h-69.4l-15.1 41.6h-29l63.4-165.8h30.8z m11.2 101.9l-26-72.7h-0.9l-26.2 72.7h53.1z" fill="#FFFFFF" /></svg>