<?xml version="1.0" standalone="no"?><!DOCTYPE svg PUBLIC "-//W3C//DTD SVG 1.1//EN" "http://www.w3.org/Graphics/SVG/1.1/DTD/svg11.dtd"><svg t="1616487017969" class="icon" viewBox="0 0 1024 1024" version="1.1" xmlns="http://www.w3.org/2000/svg" p-id="19346" xmlns:xlink="http://www.w3.org/1999/xlink" width="200" height="200"><defs><style type="text/css"></style></defs><path d="M296.352 182.08c0-44.928 36.496-81.28 81.44-81.28h264.432a81.36 81.36 0 0 1 81.424 81.28v0.208h74.128a81.36 81.36 0 0 1 81.44 81.28v263.888a19.2 19.2 0 0 1-38.416 0V263.584a42.96 42.96 0 0 0-43.024-42.88h-74.48A81.376 81.376 0 0 1 642.24 294.4H377.76a81.376 81.376 0 0 1-81.072-73.728h-74.48a42.96 42.96 0 0 0-43.024 42.88V837.92a42.96 42.96 0 0 0 43.024 42.896H532a19.2 19.2 0 1 1 0 38.4H222.224A81.36 81.36 0 0 1 140.8 837.92V263.568c0-44.944 36.48-81.28 81.424-81.28h74.128v-0.208z m81.44-42.88a42.96 42.96 0 0 0-43.04 42.88v31.04a42.96 42.96 0 0 0 43.04 42.896h264.432a42.96 42.96 0 0 0 43.024-42.88v-31.04a42.96 42.96 0 0 0-43.04-42.896H377.792z m-120.32 276.32a19.2 19.2 0 0 1 19.2-19.2h462.768a19.2 19.2 0 1 1 0 38.4H276.672a19.2 19.2 0 0 1-19.2-19.2z m0 155.232a19.2 19.2 0 0 1 19.2-19.2h217.328a19.2 19.2 0 1 1 0 38.4H276.672a19.2 19.2 0 0 1-19.2-19.2z m0.672 155.216a19.2 19.2 0 0 1 19.2-19.2H440a19.2 19.2 0 1 1 0 38.4H277.344a19.2 19.2 0 0 1-19.2-19.2z" p-id="19347"></path><path d="M724 607.2a136.8 136.8 0 1 0 0 273.6 136.8 136.8 0 0 0 0-273.6zM548.8 744c0-96.752 78.448-175.2 175.2-175.2 96.768 0 175.2 78.448 175.2 175.2s-78.432 175.2-175.2 175.2c-96.752 0-175.2-78.448-175.2-175.2z" p-id="19348"></path><path d="M724 656.8a19.2 19.2 0 0 1 19.2 19.2v68a19.2 19.2 0 1 1-38.4 0v-68a19.2 19.2 0 0 1 19.2-19.2z" p-id="19349"></path><path d="M811.2 744a19.2 19.2 0 0 1-19.2 19.2h-68a19.2 19.2 0 1 1 0-38.4h68a19.2 19.2 0 0 1 19.2 19.2z" p-id="19350"></path></svg>
