<?xml version="1.0" standalone="no"?><!DOCTYPE svg PUBLIC "-//W3C//DTD SVG 1.1//EN" "http://www.w3.org/Graphics/SVG/1.1/DTD/svg11.dtd"><svg t="1616486952715" class="icon" viewBox="0 0 1024 1024" version="1.1" xmlns="http://www.w3.org/2000/svg" p-id="18605" xmlns:xlink="http://www.w3.org/1999/xlink" width="200" height="200"><defs><style type="text/css"></style></defs><path d="M467.62 869.25H214.66c-27.18 0-49.28-22.1-49.28-49.28V178.5c0-27.18 22.1-49.28 49.28-49.28h495.36c27.18 0 49.29 22.1 49.29 49.28v291.61c0 17.15 13.9 31.05 31.05 31.05s31.05-13.9 31.05-31.05V178.5c0-61.41-49.97-111.37-111.38-111.37H214.66c-61.41 0-111.37 49.97-111.37 111.37v641.48c0 61.41 49.97 111.37 111.37 111.37h252.96c17.15 0 31.05-13.9 31.05-31.05-0.01-17.15-13.9-31.05-31.05-31.05z" p-id="18606"></path><path d="M268.17 266.89c-16.5 0-29.87 13.37-29.87 29.87v2.35c0 16.5 13.37 29.87 29.87 29.87h325.32c16.5 0 29.87-13.37 29.87-29.87v-2.35c0-16.5-13.37-29.87-29.87-29.87H268.17zM483.8 436.15H268.17c-16.5 0-29.87 13.37-29.87 29.87v2.35c0 16.5 13.37 29.87 29.87 29.87H483.8c16.5 0 29.87-13.37 29.87-29.87v-2.35c0-16.49-13.37-29.87-29.87-29.87zM784.41 742.44H746.4v-72.41c0-17.15-13.9-31.05-31.05-31.05s-31.05 13.9-31.05 31.05v103.45c0 12.86 7.82 23.9 18.97 28.61 3.71 1.57 7.8 2.44 12.09 2.44h69.05c17.15 0 31.05-13.9 31.05-31.05 0-17.14-13.9-31.04-31.05-31.04z" p-id="18607"></path><path d="M720.35 556.02c-110.58 0-200.55 89.97-200.55 200.56 0 110.58 89.97 200.55 200.55 200.55 110.59 0 200.56-89.97 200.56-200.55 0-110.6-89.96-200.56-200.56-200.56z m0 339.01c-76.34 0-138.46-62.11-138.46-138.46 0-76.35 62.11-138.47 138.46-138.47 76.35 0 138.47 62.11 138.47 138.47 0 76.35-62.11 138.46-138.47 138.46z" p-id="18608"></path></svg>
