<?xml version="1.0" standalone="no"?><!DOCTYPE svg PUBLIC "-//W3C//DTD SVG 1.1//EN" "http://www.w3.org/Graphics/SVG/1.1/DTD/svg11.dtd"><svg t="1616486924438" class="icon" viewBox="0 0 1024 1024" version="1.1" xmlns="http://www.w3.org/2000/svg" p-id="18287" xmlns:xlink="http://www.w3.org/1999/xlink" width="200" height="200"><defs><style type="text/css"></style></defs><path d="M244.8 269.6h381.6v63.2H244.8zM245.5 437.1h273.7v63.2H245.5z" p-id="18288" ></path><path d="M165 864.5V136.8c0-3.4 3.1-6.1 7-6.1l582.7-1.2c3.8 0 7 2.8 7 6.1v368.6h60.2V80.9c0-6.7-6.3-12.3-13.9-12.3H118.7c-7.6 0-13.9 5.5-13.9 12.3v837.7c0 6.7 6.3 12.3 13.9 12.3h371.1v-60.2H172c-3.8-0.1-7-2.8-7-6.2z" p-id="18289" ></path><path d="M722.4 557.6c-108.8 0-197.3 88.5-197.3 197.3s88.5 197.3 197.3 197.3 197.3-88.5 197.3-197.3-88.5-197.3-197.3-197.3z m141.8 208.6c-0.2 2.3-0.4 4.6-0.7 6.9l-0.3 2.1c-0.4 3-0.9 5.9-1.5 8.8v0.1c-0.6 2.9-1.3 5.8-2.1 8.7-0.1 0.5-0.3 0.9-0.4 1.4-17 59.5-71.8 103.1-136.8 103.1-78.6 0-142.3-63.7-142.3-142.3v-0.3c0-2.8 0.1-5.7 0.3-8.5 0.1-1 0.1-2 0.2-3l0.6-5.7c0.1-1.1 0.3-2.2 0.4-3.3l1.2-7.2c0.2-1.2 0.5-2.5 0.8-3.7 0.4-1.7 0.8-3.5 1.3-5.2 0.3-1.2 0.7-2.4 1-3.6 0.5-1.7 1.1-3.4 1.6-5.1 0.3-1 0.6-1.9 1-2.9 0.9-2.6 2-5.2 3.1-7.7 0.2-0.6 0.5-1.1 0.8-1.7 1.1-2.4 2.2-4.7 3.4-7 0.2-0.3 0.3-0.6 0.5-1 11.8-22.5 29.4-41.5 50.9-54.9 0.1-0.1 0.2-0.1 0.3-0.2 2.9-1.8 5.9-3.5 9-5.1 0.5-0.3 1.1-0.6 1.6-0.8 2.9-1.5 5.9-2.9 9-4.2 0.4-0.2 0.9-0.3 1.3-0.5 2.5-1 5.1-2 7.7-2.9 1-0.4 2-0.7 3.1-1 2.7-0.9 5.4-1.6 8.2-2.3 1.3-0.3 2.7-0.6 4.1-0.9 1.7-0.4 3.4-0.7 5.1-1 2.4-0.4 4.8-0.8 7.2-1.1 1.6-0.2 3.1-0.4 4.7-0.6 1.9-0.2 3.8-0.3 5.7-0.4 1.1-0.1 2.2-0.1 3.3-0.1 1.7-0.1 3.3-0.1 5-0.1 29.8 0 57.5 9.2 80.4 24.9 27.6 18.9 48.1 47.3 57 80.4 0.1 0.5 0.3 0.9 0.4 1.4l0.3 1.2c2.7 11 4.2 22.5 4.2 34.3 0 3-0.1 5.9-0.3 8.9-0.1 0.5-0.2 1.3-0.3 2.1z" p-id="18290" ></path><path d="M796.3 691.5c-6.7-0.3-12.9 2-18.1 6.8l-73.9 71.4-29.8-32.9c-4.4-4.9-10.5-7.8-17.1-8.1-6.7-0.3-12.9 1.9-17.8 6.4-4.9 4.4-7.8 10.5-8.1 17.1-0.3 6.6 1.9 12.9 6.4 17.8l46.7 51.6c1.2 1.3 2.4 2.4 3.4 3.1 4.4 3.4 9.7 5.1 15 5.1 6.1 0 12.2-2.3 17.1-6.8l91.9-88.5c4.9-4.5 7.7-10.6 8-17.2 0.3-6.6-2-12.9-6.5-17.8-4.5-4.8-10.6-7.7-17.2-8z" p-id="18291" ></path></svg>
