<?xml version="1.0" standalone="no"?><!DOCTYPE svg PUBLIC "-//W3C//DTD SVG 1.1//EN" "http://www.w3.org/Graphics/SVG/1.1/DTD/svg11.dtd"><svg t="1623836601479" class="icon" viewBox="0 0 1024 1024" version="1.1" xmlns="http://www.w3.org/2000/svg" p-id="2950" xmlns:xlink="http://www.w3.org/1999/xlink" width="32" height="32"><defs><style type="text/css"></style></defs><path d="M806.016 310.848L640 136.96v173.888h166.016zM832 377.92H576v-268.16H192v804.48h640v-536.32zM160 42.688H640l256 268.16v636.992a33.472 33.472 0 0 1-8.96 24.064 30.4 30.4 0 0 1-23.04 9.408h-704a30.4 30.4 0 0 1-23.04-9.408 33.472 33.472 0 0 1-8.96-24.064V76.16c0-9.728 3.008-17.792 8.96-24.064A30.4 30.4 0 0 1 160 42.688z m318.016 609.728l180.992-189.632 46.016 47.168-227.008 237.76L320 581.184l44.992-47.168 113.024 118.4z" fill="#ffffff" p-id="2951"></path></svg>