<?xml version="1.0" standalone="no"?><!DOCTYPE svg PUBLIC "-//W3C//DTD SVG 1.1//EN" "http://www.w3.org/Graphics/SVG/1.1/DTD/svg11.dtd"><svg class="icon" width="200px" height="200.00px" viewBox="0 0 1024 1024" version="1.1" xmlns="http://www.w3.org/2000/svg"><path d="M832.2 127.9v766H192.7v-766h639.5m0-64H192.7c-35.3 0-64 28.7-64 64v766c0 35.3 28.7 64 64 64h639.5c35.3 0 64-28.7 64-64v-766c0-35.4-28.7-64-64-64z" fill="#A3BDD3" /><path d="M261.433 416.203v-223.3h279.8v223.3zM605.378 224.047v-32h159.9v32zM605.394 318.831v-32h159.9v32zM605.397 416.028v-32h159.9v32zM261.437 510.503v-32h503.9v32zM261.44 605.397v-32h503.9v32z" fill="#A3BDD3" /><path d="M733.039 824.168v-32h97.9v32z" fill="#8C98A6" /><path d="M896.2 958.3H271.1v-176c0-35.3 28.7-64 64-64h561.1c35.3 0 64 28.7 64 64v112c0 35.4-28.7 64-64 64z" fill="#8AA9BF" /><path d="M398.6 771c23.2 0 40.6 6.4 52.6 19.2 11.4 12 17.2 29.4 17.2 52.2 0 22.6-5.8 40-17.2 52.2-12 12.8-29.4 19.2-52.6 19.2h-52.2V771h52.2z m-28.8 122.8h24.4c17.8 0 30.8-4.2 39-12.4 8-8.4 12-21.4 12-39 0-18-4-31.2-12-39.2-8.2-8.2-21.2-12.2-39-12.2h-24.4v102.8zM605.4 789.4c12 13.4 18 31.2 18 53.2 0 22-6 39.6-18 53-12.6 14-29.8 21-51.6 21-22 0-39.2-7.2-51.6-21.2-12-13.6-17.8-31.2-17.8-52.8 0-21.8 5.8-39.4 17.8-53 12.4-14.4 29.6-21.4 51.6-21.4 21.8 0 39 7 51.6 21.2z m-86 14.4c-7.8 9.6-11.6 22.4-11.6 38.8 0 16.2 3.8 29 11.6 38.6 8 9.8 19.6 14.8 34.4 14.8s26.2-4.8 34.2-14.2c7.8-9.4 11.8-22.4 11.8-39.2s-4-30-11.8-39.6c-8-9.6-19.4-14.2-34.2-14.2s-26.2 5-34.4 15zM749 781.4c10.4 8.4 16.6 20 18.8 34.4H745c-2.4-9.4-6.8-16.2-13.4-20.6-6.4-4.4-14.6-6.4-24.6-6.4-15 0-26.2 5-33.8 15.4-7 9.2-10.4 22-10.4 38.4 0 16.8 3.4 29.8 10.2 38.8 7.4 9.6 19 14.6 34.6 14.6 10.2 0 18.6-2.6 25-7.4 6.8-5.4 11.6-13.6 14.4-24.4h22.8c-3.2 16.8-10.6 29.8-22.4 39.2-11 8.8-24.2 13.2-39.6 13.2-23.8 0-41.6-7.6-53.2-22.4-10.2-12.8-15.2-30-15.2-51.6 0-21.2 5.2-38.6 15.8-51.8 12-15.2 29.4-22.6 52.2-22.6 16.8 0 30.8 4.4 41.6 13.2zM810.6 771l33.6 50.4 33.6-50.4h28.6l-48.2 69 51.4 73.8H881l-36.8-55.2-36.8 55.2h-28.6l51-73.8-47.8-69h28.6z" fill="#FFFFFF" /><path d="M324.2 219.8l31.1 126.1h0.9L389 219.8h28l32.7 126.1h0.9l31.1-126.1h30.6l-47.8 165.8h-28.8l-32.3-124.7h-0.9L370 385.6h-29l-47.6-165.8h30.8z" fill="#FFFFFF" /></svg>