<?xml version="1.0" standalone="no"?><!DOCTYPE svg PUBLIC "-//W3C//DTD SVG 1.1//EN" "http://www.w3.org/Graphics/SVG/1.1/DTD/svg11.dtd"><svg t="1618990178619" class="icon" viewBox="0 0 1024 1024" version="1.1" xmlns="http://www.w3.org/2000/svg" p-id="30191" xmlns:xlink="http://www.w3.org/1999/xlink" width="200" height="200"><defs><style type="text/css"></style></defs><path d="M789.333333 0H140.8c-36.266667 0-64 27.733333-64 64v896c0 36.266667 27.733333 64 64 64h768c36.266667 0 64-27.733333 64-64V166.4L789.333333 0z m-27.733333 787.2H290.133333c-23.466667 0-40.533333-19.2-40.533333-40.533333s19.2-40.533333 40.533333-40.533334h471.466667c23.466667 0 40.533333 19.2 40.533333 40.533334s-17.066667 40.533333-40.533333 40.533333z m0-181.333333H290.133333c-23.466667 0-40.533333-19.2-40.533333-40.533334s19.2-40.533333 40.533333-40.533333h471.466667c23.466667 0 40.533333 19.2 40.533333 40.533333s-17.066667 40.533333-40.533333 40.533334z m0-181.333334H290.133333c-23.466667 0-40.533333-19.2-40.533333-40.533333s19.2-40.533333 40.533333-40.533333h471.466667c23.466667 0 40.533333 19.2 40.533333 40.533333s-17.066667 40.533333-40.533333 40.533333zM759.466667 192V42.666667l170.666666 149.333333h-170.666666z" p-id="30192" fill="#cdcdcd"></path></svg>