<?xml version="1.0" standalone="no"?><!DOCTYPE svg PUBLIC "-//W3C//DTD SVG 1.1//EN" "http://www.w3.org/Graphics/SVG/1.1/DTD/svg11.dtd"><svg class="icon" width="200px" height="200.00px" viewBox="0 0 1024 1024" version="1.1" xmlns="http://www.w3.org/2000/svg"><path d="M832.2 127.9v766H192.7v-766h639.5m0-64H192.7c-35.3 0-64 28.7-64 64v766c0 35.3 28.7 64 64 64h639.5c35.3 0 64-28.7 64-64v-766c0-35.4-28.7-64-64-64z" fill="#DD9387" /><path d="M261.397 416.166v-223.3h223.3v223.3z" fill="#DD9387" /><path d="M733.039 824.168v-32h97.9v32z" fill="#8C98A6" /><path d="M896.2 958.3h-440v-176c0-35.3 28.7-64 64-64h376c35.3 0 64 28.7 64 64v112c0 35.4-28.7 64-64 64z" fill="#C1756C" /><path d="M591.6 771c34.4 0 51.8 14.6 51.8 43.8 0 29.4-17.4 44.2-52.2 44.2h-35.4v54.8h-23.4V771h59.2z m-35.8 68h34c10.4 0 18-2 22.8-5.6 4.8-3.8 7.2-10 7.2-18.6 0-8.6-2.6-14.6-7.4-18.2-4.8-3.8-12.4-5.6-22.6-5.6h-34v48zM722.6 771c34.4 0 51.8 14.6 51.8 43.8 0 29.4-17.4 44.2-52.2 44.2h-35.4v54.8h-23.4V771h59.2z m-35.8 68h34c10.4 0 18-2 22.8-5.6 4.8-3.8 7.2-10 7.2-18.6 0-8.6-2.6-14.6-7.4-18.2-4.8-3.8-12.4-5.6-22.6-5.6h-34v48zM900.4 771v20h-46.8v122.8h-23.4V791h-46.8v-20h117z" fill="#FFFFFF" /><path d="M379.3 219.8c39.9 0 60.1 16.9 60.1 50.8 0 34.1-20.2 51.3-60.6 51.3h-41.1v63.6h-27.2V219.8h68.8z m-41.5 78.9h39.5c12.1 0 20.9-2.3 26.5-6.5 5.6-4.4 8.4-11.6 8.4-21.6 0-10-3-16.9-8.6-21.1-5.6-4.4-14.4-6.5-26.2-6.5h-39.5v55.7z" fill="#FFFFFF" /><path d="M644.7 535.2V411c-70.1 0-126.9 56.8-126.9 126.9s56.8 126.9 126.9 126.9c70.1 0 126.9-56.8 126.9-126.9v-2.6H644.7z" fill="#DD9387" /></svg>