<?xml version="1.0" standalone="no"?><!DOCTYPE svg PUBLIC "-//W3C//DTD SVG 1.1//EN" "http://www.w3.org/Graphics/SVG/1.1/DTD/svg11.dtd"><svg class="icon" width="200px" height="200.00px" viewBox="0 0 1024 1024" version="1.1" xmlns="http://www.w3.org/2000/svg"><path d="M832.2 127.9v766H192.7v-766h639.5m0-64H192.7c-35.3 0-64 28.7-64 64v766c0 35.3 28.7 64 64 64h639.5c35.3 0 64-28.7 64-64v-766c0-35.4-28.7-64-64-64z" fill="#D6A3B6" /><path d="M425.375 159.616v-32h87.1v32zM425.375 223.616v-32h87.1v32zM425.375 287.616v-32h87.1v32zM425.375 351.616v-32h87.1v32zM425.37 415.92v-32h87.1v32zM512.951 191.823v-32h87.1v32zM512.951 255.823v-32h87.1v32zM512.951 319.823v-32h87.1v32zM512.951 383.823v-32h87.1v32zM513.047 448.127v-32h87.1v32z" fill="#D6A3B6" /><path d="M147.104 479.953v-32h701.6v32z" fill="#D6A3B6" /><path d="M733.039 824.168v-32h97.9v32z" fill="#8C98A6" /><path d="M896.2 958.3H407.3v-176c0-35.3 28.7-64 64-64h424.9c35.3 0 64 28.7 64 64v112c0 35.4-28.7 64-64 64z" fill="#C18BA1" /><path d="M553.4 771c14.6 0 26.2 3.2 34.6 9.8 8.8 7.2 13.4 17.6 13.4 31.2 0 7.4-2 14-6 19.8-4.4 6.4-10.6 10.6-18.2 12.6v0.4c12.4 2.8 19.4 11 21 25l2.4 23c0.8 8.8 3.8 15.8 8.6 21h-25.4c-3.4-4.4-5.4-10.6-6.2-18.6l-1.8-17.6c-0.8-7.8-3.2-13.4-7.2-16.8-4.2-3.6-10.4-5.2-18.4-5.2h-37v58.2h-23.4V771h63.6z m-40.2 64.6h37c9.2 0 16.2-2 21-5.8 4.4-4 6.6-9.6 6.6-16.8 0-7.8-2.2-13.4-6.6-16.8-4.4-3.6-11.4-5.2-21-5.2h-37v44.6zM696.4 771L751 913.8h-25L713 878h-59.8l-13 35.8h-25L669.8 771h26.6z m9.6 87.8l-22.4-62.6h-0.8l-22.6 62.6H706zM828.5 771c14.6 0 26.2 3.2 34.6 9.8 8.8 7.2 13.4 17.6 13.4 31.2 0 7.4-2 14-6 19.8-4.4 6.4-10.6 10.6-18.2 12.6v0.4c12.4 2.8 19.4 11 21 25l2.4 23c0.8 8.8 3.8 15.8 8.6 21h-25.4c-3.4-4.4-5.4-10.6-6.2-18.6l-1.8-17.6c-0.8-7.8-3.2-13.4-7.2-16.8-4.2-3.6-10.4-5.2-18.4-5.2h-37v58.2h-23.4V771h63.6z m-40.2 64.6h37c9.2 0 16.2-2 21-5.8 4.4-4 6.6-9.6 6.6-16.8 0-7.8-2.2-13.4-6.6-16.8-4.4-3.6-11.4-5.2-21-5.2h-37v44.6z" fill="#FFFFFF" /></svg>