<?xml version="1.0" standalone="no"?><!DOCTYPE svg PUBLIC "-//W3C//DTD SVG 1.1//EN" "http://www.w3.org/Graphics/SVG/1.1/DTD/svg11.dtd"><svg t="1616574944848" class="icon" viewBox="0 0 1024 1024" version="1.1" xmlns="http://www.w3.org/2000/svg" p-id="13652" xmlns:xlink="http://www.w3.org/1999/xlink" width="200" height="200"><defs><style type="text/css"></style></defs><path d="M493.02 69.76c25.71-0.94 51.58 0.21 76.92 4.82 14.65 2.54 28.76 7.32 43.02 11.4 87.64 25.77 175.28 51.56 262.92 77.34 13.91 3.97 28.09 8.96 39.07 18.72 7.63 6.77 12.97 16.53 12.84 26.9 0.21 11.38-6.15 22.02-14.91 28.92-12.04 9.65-27.1 14.14-41.7 18.3-43.14 12.7-86.29 25.36-129.42 38.08-0.09 29.17 0.11 58.33-0.1 87.5-0.42 38.29-10.37 76.46-28.97 109.95-17.62 31.89-42.85 59.52-72.97 80-29.62 20.23-64.03 33.41-99.6 38.11-40.81 5.4-83.08 0.1-121.05-15.93-33.32-13.93-63.29-35.77-86.77-63.2-34.52-39.93-54.62-91.92-55.98-144.68-0.17-30.57 0-61.14-0.08-91.7-16.99-4.99-33.98-9.99-50.96-15.01-0.09 28.56 0.03 57.13-0.06 85.7 0.01 6.82-2.9 13.64-8.17 18.04-6.85 5.95-17.29 7.24-25.4 3.2-7.64-3.62-12.94-11.77-12.92-20.25 0.03-33.46 0.02-66.91 0.01-100.37-12.28-3.6-24.55-7.22-36.82-10.82-12.34-3.51-24.75-7.83-35.17-15.52-7.27-5.29-13.26-12.74-15.61-21.53-2.73-9.6-0.56-20.22 5.16-28.33 9.2-12.83 24.36-19.45 38.97-24.1 95.3-28.09 190.63-56.09 285.95-84.14 23.22-7.31 47.55-10.41 71.8-11.4m-51.36 53.94c-96.72 28.41-193.43 56.87-290.13 85.36 96.77 28.48 193.55 56.96 290.33 85.41 21.87 5.88 44.62 7.47 67.17 7.81 21.44-0.34 43.04-1.82 63.91-7.01 15.93-4.47 31.75-9.31 47.65-13.92 81.88-24.1 163.78-48.17 245.67-72.29-92.21-27.2-184.45-54.28-276.67-81.43-7.85-2.27-15.64-4.78-23.65-6.42-14.76-3.02-29.8-4.48-44.84-5.08-26.62-0.69-53.61 0.67-79.44 7.57m-118.9 189.08c-0.02 21.39 0 42.78-0.02 64.18-0.23 22.7 3.65 45.45 11.55 66.74 16.96 46.2 53.04 84.92 97.93 105.09 37.25 17.04 80.2 20.99 120.01 11.49 31.47-7.45 60.82-23.43 84.32-45.63 28.43-26.68 48.17-62.49 55.35-100.84 3.44-17.38 3.5-35.16 3.35-52.81-0.01-16.11 0.02-32.23-0.01-48.34-35.19 11.01-70.37 22.05-105.56 33.06-19.33 6.24-39.58 9.17-59.81 10.43-25.31 1.45-50.84 0.45-75.83-4-18.02-3.1-35.16-9.59-52.62-14.8-26.22-8.18-52.44-16.41-78.66-24.57zM195.43 419.6c7.79-2.3 16.69-0.15 22.54 5.51 4.45 4.48 9.02 8.86 13.35 13.45 7.93 8.96 7.11 23.93-1.72 31.99-4.06 3.98-8 8.08-12.09 12.02-7.51 7.03-19.83 7.97-28.35 2.23-5.39-3.86-9.54-9.16-14.4-13.64-5.31-4.86-8.39-12.1-7.74-19.32 0.33-6.66 4.05-12.61 8.93-16.94 6.1-5.51 11.08-13.14 19.48-15.3z" p-id="13653" ></path><path d="M713.52 590.73c6.42-1.29 13.31 0.39 18.52 4.35 46.6 34.56 85.45 79.2 114.43 129.38 35.98 62.19 56.83 132.87 61.54 204.51 0.74 9.88-5.82 19.55-15.09 22.87-4.76 1.82-9.94 1.39-14.93 1.41H140.03c-3.99-0.06-8.04 0.3-11.97-0.55-8.59-1.81-15.84-8.99-17.59-17.61-1.05-5.04-0.15-10.19 0.18-15.25 6.4-75.49 30.73-149.62 71.8-213.4 26.4-41.11 59.7-77.87 98.49-107.64 3.79-2.84 7.47-6.11 12.12-7.43 7.04-2.25 15.07-0.84 20.97 3.62 32.78 24.28 69.86 42.91 109.2 53.86 41.43 11.65 85.23 14.72 127.87 8.99 54.8-7.2 107.27-29.31 151.68-62.06 3.15-2.45 6.78-4.34 10.74-5.05M248.16 695.15c-49.24 60.07-79.84 134.66-89.35 211.6h700.37c-6.62-52.58-22.85-104.01-48.3-150.53-23.7-43.3-55.34-82.44-93.69-113.61-25.62 17.33-53.34 31.56-82.38 42.21-71.74 26.47-151.83 29.52-225.37 8.52-38.67-10.92-75.45-28.3-108.78-50.73-19.23 15.66-36.78 33.36-52.5 52.54z" p-id="13654" ></path><path d="M456.37 786.42c1.82-0.49 3.71-0.68 5.6-0.68 31.34 0.02 62.68 0.02 94.02-0.01 7.51-0.06 14.85 3.98 18.99 10.22 4.65 6.86 5.28 16.23 1.51 23.63-2.93 6.17-8.83 10.8-15.49 12.32-3.59 0.88-7.32 0.56-10.97 0.6-28 0.01-55.99-0.01-83.99 0.01-4.32 0.12-8.8 0.02-12.81-1.78-8.57-3.51-14.5-12.49-14.27-21.75-0.18-10.32 7.4-20.1 17.41-22.56z" p-id="13655" ></path></svg>
