<?xml version="1.0" standalone="no"?><!DOCTYPE svg PUBLIC "-//W3C//DTD SVG 1.1//EN" "http://www.w3.org/Graphics/SVG/1.1/DTD/svg11.dtd"><svg t="1618480468474" class="icon" viewBox="0 0 1024 1024" version="1.1" xmlns="http://www.w3.org/2000/svg" p-id="4735" xmlns:xlink="http://www.w3.org/1999/xlink" width="200" height="200"><defs><style type="text/css"></style></defs><path d="M588.82504 317.8h10c1.1 0 2 0.9 2 2v10c0 1.1-0.9 2-2 2h-10c-1.1 0-2-0.9-2-2v-10c0-1.1 0.9-2 2-2zM928.02504 27.9h10c1.1 0 2 0.9 2 2v10c0 1.1-0.9 2-2 2h-10c-1.1 0-2-0.9-2-2v-10c0-1.1 0.9-2 2-2z" p-id="4736" ></path><path d="M447.12504 116.8l-413.8 332.9c-44.5 35.8-44.4 94.2 0.1 129.9l410.6 329.4c44.5 35.7 83.7-0.6 83.7-53.6V677.9h62.2c179.5 0 316.5 77.6 400.5 227.2 16.5 27.2 33.7 21.2 33.7 0-3.6-266.6-229.4-566.5-488.9-566.5h-7.5V170.3c-0.1-63-36.2-89.2-80.6-53.5z" p-id="4737" ></path></svg>
