<?xml version="1.0" standalone="no"?><!DOCTYPE svg PUBLIC "-//W3C//DTD SVG 1.1//EN" "http://www.w3.org/Graphics/SVG/1.1/DTD/svg11.dtd"><svg class="icon" width="200px" height="200.00px" viewBox="0 0 1024 1024" version="1.1" xmlns="http://www.w3.org/2000/svg"><path d="M832.2 127.9v766H192.7v-766h639.5m0-64H192.7c-35.3 0-64 28.7-64 64v766c0 35.3 28.7 64 64 64h639.5c35.3 0 64-28.7 64-64v-766c0-35.4-28.7-64-64-64z" fill="#DD9387" /><path d="M733.039 824.168v-32h97.9v32z" fill="#8C98A6" /><path d="M896.2 958.3H411v-176c0-35.3 28.7-64 64-64h421.1c35.3 0 64 28.7 64 64v112c0.1 35.4-28.6 64-63.9 64z" fill="#C1756C" /><path d="M570.6 778.6c10 7.4 15.8 19 17.2 34.6h-23.2c-2-8.8-5.8-15.2-11-19-5.2-4-13.2-5.8-23.6-5.8-9 0-15.8 1.2-20.6 3.8-6 3-8.8 8-8.8 14.8 0 6 3.2 11 10 14.6 3 1.6 11.2 4.6 24.4 8.8 19.4 6 31.8 10.8 37.4 14 12.4 7.4 18.6 17.6 18.6 30.8 0 12.8-5 23-15 30.4-10 7.2-24.2 11-42.4 11-17.6 0-31.4-3.4-41.2-10.2-12-8.4-18.6-21.6-19.6-39.8H496c1.6 10.8 5.4 18.6 11.6 23.2 5.6 4 14.2 6.2 26 6.2 10.4 0 18.8-1.8 24.8-5.2 6-3.6 9.2-8.2 9.2-14.2 0-7.6-4.6-13.6-13.4-18-2.8-1.4-12-4.6-27.8-9.4-17.6-5.6-28.6-9.6-32.8-12-11-6.6-16.4-16.2-16.4-28.8s5.2-22.6 16-29.8c10-7 22.6-10.4 38-10.4 16.8 0 30 3.4 39.4 10.4zM624.4 771l26.8 108.6h0.8L680.2 771h24.2l28.2 108.6h0.8L760.2 771h26.4l-41.2 142.8h-24.8l-27.8-107.4h-0.8l-28 107.4h-25L598 771h26.4zM899 771v20h-74v39.6h69.8v20H825v63.2h-23.4V771H899z" fill="#FFFFFF" /><path d="M569.3 281.4v33.7H433.2v75.3h128.5v33.7H433.2V540h-39.5V281.4h175.6zM631.9 329.8v210.1H599V329.8h32.9z" fill="#DD9387" /></svg>