<?xml version="1.0" standalone="no"?><!DOCTYPE svg PUBLIC "-//W3C//DTD SVG 1.1//EN" "http://www.w3.org/Graphics/SVG/1.1/DTD/svg11.dtd"><svg class="icon" width="200px" height="200.00px" viewBox="0 0 1024 1024" version="1.1" xmlns="http://www.w3.org/2000/svg"><path d="M832.2 127.9v766H192.7v-766h639.5m0-64H192.7c-35.3 0-64 28.7-64 64v766c0 35.3 28.7 64 64 64h639.5c35.3 0 64-28.7 64-64v-766c0-35.4-28.7-64-64-64z" fill="#A3BDD3" /><path d="M261.433 416.203v-223.3h279.8v223.3zM605.378 224.047v-32h159.9v32zM605.394 318.831v-32h159.9v32zM605.397 416.028v-32h159.9v32zM261.437 510.503v-32h503.9v32zM261.44 605.397v-32h503.9v32z" fill="#A3BDD3" /><path d="M733.039 824.168v-32h97.9v32z" fill="#8C98A6" /><path d="M892.5 958.3H231.1v-176c0-35.3 30.3-64 67.7-64h593.7c37.4 0 67.7 28.7 67.7 64v112c0 35.4-30.3 64-67.7 64z" fill="#8AA9BF" /><path d="M324.2 219.8l31.1 126.1h0.9L389 219.8h28l32.7 126.1h0.9l31.1-126.1h30.6l-47.8 165.8h-28.8l-32.3-124.7h-0.9L370 385.6h-29l-47.6-165.8h30.8zM309.2 770L336 878.6h0.8L365 770h24.2l28.2 108.6h0.8L445 770h26.4l-41.2 142.8h-24.8l-27.8-107.4h-0.8l-28 107.4h-25l-41-142.8h26.4zM601.4 788.4c12 13.4 18 31.2 18 53.2 0 22-6 39.6-18 53-12.6 14-29.8 21-51.6 21-22 0-39.2-7.2-51.6-21.2-12-13.6-17.8-31.2-17.8-52.8 0-21.8 5.8-39.4 17.8-53 12.4-14.4 29.6-21.4 51.6-21.4 21.8 0 39 7 51.6 21.2z m-86 14.4c-7.8 9.6-11.6 22.4-11.6 38.8 0 16.2 3.8 29 11.6 38.6 8 9.8 19.6 14.8 34.4 14.8 14.8 0 26.2-4.8 34.2-14.2 7.8-9.4 11.8-22.4 11.8-39.2 0-16.8-4-30-11.8-39.6-8-9.6-19.4-14.2-34.2-14.2-14.8 0-26.2 5-34.4 15zM705 770c14.6 0 26.2 3.2 34.6 9.8 8.8 7.2 13.4 17.6 13.4 31.2 0 7.4-2 14-6 19.8-4.4 6.4-10.6 10.6-18.2 12.6v0.4c12.4 2.8 19.4 11 21 25l2.4 23c0.8 8.8 3.8 15.8 8.6 21h-25.4c-3.4-4.4-5.4-10.6-6.2-18.6l-1.8-17.6c-0.8-7.8-3.2-13.4-7.2-16.8-4.2-3.6-10.4-5.2-18.4-5.2h-37v58.2h-23.4V770H705z m-40.2 64.6h37c9.2 0 16.2-2 21-5.8 4.4-4 6.6-9.6 6.6-16.8 0-7.8-2.2-13.4-6.6-16.8-4.4-3.6-11.4-5.2-21-5.2h-37v44.6zM833 770c23.2 0 40.6 6.4 52.6 19.2 11.4 12 17.2 29.4 17.2 52.2 0 22.6-5.8 40-17.2 52.2-12 12.8-29.4 19.2-52.6 19.2h-52.2V770H833z m-28.8 122.8h24.4c17.8 0 30.8-4.2 39-12.4 8-8.4 12-21.4 12-39 0-18-4-31.2-12-39.2-8.2-8.2-21.2-12.2-39-12.2h-24.4v102.8z" fill="#FFFFFF" /></svg>