<?xml version="1.0" standalone="no"?><!DOCTYPE svg PUBLIC "-//W3C//DTD SVG 1.1//EN" "http://www.w3.org/Graphics/SVG/1.1/DTD/svg11.dtd"><svg class="icon" width="200px" height="200.00px" viewBox="0 0 1024 1024" version="1.1" xmlns="http://www.w3.org/2000/svg"><path d="M832.2 127.9v766H192.7v-766h639.5m0-64H192.7c-35.3 0-64 28.7-64 64v766c0 35.3 28.7 64 64 64h639.5c35.3 0 64-28.7 64-64v-766c0-35.4-28.7-64-64-64z" fill="#A3D1C1" /><path d="M261.397 416.166v-223.3h223.3v223.3zM261.437 510.503v-32h503.9v32zM575.226 415.255v-32h190.1v32zM575.29 225.09v-32h190.1v32zM575.302 322.98v-32h190.1v32z" fill="#A3D1C1" /><path d="M448.77 655.43h-32v-175.2h32zM293.426 655.43h-32v-175.2h32zM765.558 655.482h-32v-462.7h32zM607.208 655.482h-32v-462.7h32z" fill="#A3D1C1" /><path d="M261.44 605.397v-32h503.9v32z" fill="#A3D1C1" /><path d="M733.039 824.168v-32h97.9v32z" fill="#8C98A6" /><path d="M904.6 958.3H311.1v-176c0-35.3 24.9-64 55.6-64h537.9c30.7 0 55.6 28.7 55.6 64v112c0 35.4-24.9 64-55.6 64z" fill="#83B29E" /><path d="M332.4 219.8l39 58.5 39-58.5h33.2l-55.9 80.1 59.7 85.7h-33.2l-42.7-64.1-42.7 64.1h-33.2l59.2-85.7-55.5-80.1h33.1zM416 770l33.6 50.4 33.6-50.4h28.6l-48.2 69 51.4 73.8h-28.6l-36.8-55.2-36.8 55.2h-28.6l51-73.8-47.8-69H416zM553.2 770v122.8h77.2v20H530V770h23.2zM738.2 777.6c10 7.4 15.8 19 17.2 34.6h-23.2c-2-8.8-5.8-15.2-11-19-5.2-4-13.2-5.8-23.6-5.8-9 0-15.8 1.2-20.6 3.8-6 3-8.8 8-8.8 14.8 0 6 3.2 11 10 14.6 3 1.6 11.2 4.6 24.4 8.8 19.4 6 31.8 10.8 37.4 14 12.4 7.4 18.6 17.6 18.6 30.8 0 12.8-5 23-15 30.4-10 7.2-24.2 11-42.4 11-17.6 0-31.4-3.4-41.2-10.2-12-8.4-18.6-21.6-19.6-39.8h23.2c1.6 10.8 5.4 18.6 11.6 23.2 5.6 4 14.2 6.2 26 6.2 10.4 0 18.8-1.8 24.8-5.2 6-3.6 9.2-8.2 9.2-14.2 0-7.6-4.6-13.6-13.4-18-2.8-1.4-12-4.6-27.8-9.4-17.6-5.6-28.6-9.6-32.8-12-11-6.6-16.4-16.2-16.4-28.8s5.2-22.6 16-29.8c10-7 22.6-10.4 38-10.4 16.8 0 30 3.4 39.4 10.4zM797.4 770l33.6 50.4 33.6-50.4h28.6L845 839l51.4 73.8h-28.6L831 857.6l-36.8 55.2h-28.6l51-73.8-47.8-69h28.6z" fill="#FFFFFF" /></svg>