<?xml version="1.0" standalone="no"?><!DOCTYPE svg PUBLIC "-//W3C//DTD SVG 1.1//EN" "http://www.w3.org/Graphics/SVG/1.1/DTD/svg11.dtd"><svg class="icon" width="200px" height="200.00px" viewBox="0 0 1024 1024" version="1.1" xmlns="http://www.w3.org/2000/svg"><path d="M832.2 127.9v766H192.7v-766h639.5m0-64H192.7c-35.3 0-64 28.7-64 64v766c0 35.3 28.7 64 64 64h639.5c35.3 0 64-28.7 64-64v-766c0-35.4-28.7-64-64-64z" fill="#A3BDD3" /><path d="M425.374 159.616v-32h87.1v32zM425.374 223.616v-32h87.1v32zM425.375 287.616v-32h87.1v32zM425.375 351.616v-32h87.1v32zM425.37 415.92v-32h87.1v32zM512.95 191.823v-32h87.1v32zM512.951 255.823v-32h87.1v32zM512.951 319.823v-32h87.1v32zM512.951 383.823v-32h87.1v32zM513.047 448.127v-32h87.1v32z" fill="#A3BDD3" /><path d="M147.104 479.953v-32h701.6v32z" fill="#A3BDD3" /><path d="M733.039 824.168v-32h97.9v32z" fill="#8C98A6" /><path d="M896.2 958.3h-366v-176c0-35.3 28.7-64 64-64h301.9c35.3 0 64 28.7 64 64v112c0.1 35.4-28.6 64-63.9 64z" fill="#8AA9BF" /><path d="M714.1 771v18.6l-82.4 104.2h87.2v20H601.1v-18.4L683.7 791h-76.6v-20h107zM761.3 771v142.8h-23.4V771h23.4zM848.5 771c34.4 0 51.8 14.6 51.8 43.8 0 29.4-17.4 44.2-52.2 44.2h-35.4v54.8h-23.4V771h59.2z m-35.8 68h34c10.4 0 18-2 22.8-5.6 4.8-3.8 7.2-10 7.2-18.6 0-8.6-2.6-14.6-7.4-18.2-4.8-3.8-12.4-5.6-22.6-5.6h-34v48z" fill="#FFFFFF" /></svg>