<?xml version="1.0" standalone="no"?><!DOCTYPE svg PUBLIC "-//W3C//DTD SVG 1.1//EN" "http://www.w3.org/Graphics/SVG/1.1/DTD/svg11.dtd"><svg t="1618968485358" class="icon" viewBox="0 0 1024 1024" version="1.1" xmlns="http://www.w3.org/2000/svg" p-id="4137" xmlns:xlink="http://www.w3.org/1999/xlink" width="200" height="200"><defs><style type="text/css"></style></defs><path d="M512.285811 0a511.992483 511.992483 0 1 0 511.714074 511.714075A511.435667 511.435667 0 0 0 512.285811 0z m43.153254 250.567284v177.345955a43.153254 43.153254 0 1 1-86.306509 0V250.567284a4.732938 4.732938 0 0 1 0-1.948857 42.874846 42.874846 0 0 1 85.749693 0 4.732938 4.732938 0 0 1 0.556816 1.948857z m-43.153254 569.066142a287.873968 287.873968 0 0 1-86.306509-562.384348v62.363413a229.129861 229.129861 0 1 0 172.334609 0V257.249078a287.873968 287.873968 0 0 1-86.0281 562.384348z" p-id="4138" fill="#ffffff"></path></svg>